<svg xmlns="http://www.w3.org/2000/svg" viewBox="0 0 512 512"><path d="M490.008 244.345a7.989 7.989 0 0 0-9.75 5.734l-.521 2.008H32.263l-.521-2.008c-1.102-4.281-5.477-6.848-9.75-5.734-4.273 1.105-6.844 5.473-5.734 9.75l49.789 192.031c4.57 17.641 20.484 29.961 38.711 29.961h302.484c18.227 0 34.141-12.32 38.711-29.961l49.789-192.031a7.998 7.998 0 0 0-5.734-9.75zM148 428.088c0 6.629-5.375 12-12 12s-12-5.371-12-12v-136c0-6.629 5.375-12 12-12s12 5.371 12 12v136zm40 0c0 6.629-5.375 12-12 12s-12-5.371-12-12v-136c0-6.629 5.375-12 12-12s12 5.371 12 12v136zm40 0c0 6.629-5.375 12-12 12s-12-5.371-12-12v-136c0-6.629 5.375-12 12-12s12 5.371 12 12v136zm40 0c0 6.629-5.375 12-12 12s-12-5.371-12-12v-136c0-6.629 5.375-12 12-12s12 5.371 12 12v136zm40 0c0 6.629-5.375 12-12 12s-12-5.371-12-12v-136c0-6.629 5.375-12 12-12s12 5.371 12 12v136zm40 0c0 6.629-5.375 12-12 12s-12-5.371-12-12v-136c0-6.629 5.375-12 12-12s12 5.371 12 12v136zm40 0c0 6.629-5.375 12-12 12s-12-5.371-12-12v-136c0-6.629 5.375-12 12-12s12 5.371 12 12v136z" fill="#fff"/><path d="M496 220.088H16c-8.836 0-16 7.163-16 16 0 8.836 7.164 16 16 16h480c8.836 0 16-7.164 16-16 0-8.837-7.164-16-16-16z" fill="#fff"/><path d="M282.275 37.134c-8.164 3.382-12.041 12.741-8.659 20.905l76.306 184.218c3.382 8.164 12.741 12.041 20.905 8.659 8.164-3.382 12.041-12.741 8.659-20.905L303.18 45.794c-3.382-8.164-12.741-12.041-20.905-8.66zm-52.156 0c8.164 3.382 12.041 12.741 8.659 20.905l-76.306 184.218c-3.382 8.164-12.741 12.041-20.905 8.659-8.164-3.382-12.041-12.741-8.659-20.905l76.306-184.218c3.381-8.163 12.741-12.04 20.905-8.659z" fill="#fff"/></svg>