<svg xmlns="http://www.w3.org/2000/svg" viewBox="0 0 58 58"><path fill="#fff" d="M2.5 11v47h54V11z"/><path fill="#ec4848" d="M4.5 29h28v23h-28z"/><path fill="#fff" d="M6.5 31h24v19h-24z"/><path d="M15.5 11H1.878a.285.285 0 0 1-.274-.363l4.062-8.824A3.114 3.114 0 0 1 8.496 0H17.5l-2 11zm28 0h-14V0h12zm-21 14a7 7 0 0 1-7-7v-7h14v7a7 7 0 0 1-7 7zm28 0a7 7 0 0 1-7-7v-7h13.893c.059 0 .107.048.107.107V18a7 7 0 0 1-7 7z" fill="#fff" stroke="#ec4848"/><path fill="#fff" stroke="#ec4848" d="M29.5 11h-14l2-11h12zm27.645 0H43.5l-2-11h9.004c1.217 0 2.322.708 2.831 1.814l4.068 8.845a.268.268 0 0 1-.258.341zM8.5 25a7 7 0 0 1-7-7v-6.718c0-.156.126-.282.282-.282H15.5v7a7 7 0 0 1-7 7zm28 0a7 7 0 0 1-7-7v-7h14v7a7 7 0 0 1-7 7z"/><path fill="#ec4848" d="M36.5 29h16v29h-16z"/><path fill="#fff" d="M38.5 31h12v25h-12z"/><path d="M48.5 47a1 1 0 0 1-1-1v-3a1 1 0 1 1 2 0v3a1 1 0 0 1-1 1z" fill="#fff"/></svg>