<svg id="svg" version="1.1" width="400" height="35" xmlns="http://www.w3.org/2000/svg" xmlns:xlink="http://www.w3.org/1999/xlink" style="display: block;"><g id="svgg"><path id="path0" d="M18.000 1.099 C 18.000 1.704,15.750 4.402,13.000 7.094 C 10.250 9.787,8.000 12.442,8.000 12.995 C 8.000 13.548,7.314 14.000,6.475 14.000 C 5.637 14.000,4.523 15.125,4.000 16.500 C 3.477 17.875,2.363 19.000,1.525 19.000 C 0.285 19.000,0.000 20.498,0.000 27.000 L 0.000 35.000 5.500 35.000 C 9.607 35.000,11.000 34.637,11.000 33.567 C 11.000 32.779,11.900 31.849,13.000 31.500 C 14.100 31.151,15.000 30.460,15.000 29.965 C 15.000 29.470,17.633 26.332,20.851 22.992 L 26.702 16.919 32.400 22.618 C 35.535 25.752,38.542 29.145,39.085 30.158 C 39.627 31.171,40.730 32.000,41.535 32.000 C 42.341 32.000,43.000 32.675,43.000 33.500 C 43.000 34.722,44.667 35.000,52.000 35.000 C 57.453 35.000,61.000 34.598,61.000 33.980 C 61.000 33.418,64.150 29.733,68.000 25.791 C 71.850 21.848,75.000 18.257,75.000 17.811 C 75.000 16.187,76.915 17.068,79.923 20.077 C 81.615 21.769,83.000 23.421,83.000 23.748 C 83.000 24.075,85.025 26.283,87.500 28.655 C 89.975 31.026,92.000 33.424,92.000 33.983 C 92.000 34.597,95.567 35.000,101.000 35.000 C 106.021 35.000,110.000 34.580,110.000 34.049 C 110.000 33.527,113.150 29.873,117.000 25.930 C 120.850 21.987,124.000 18.365,124.000 17.881 C 124.000 16.106,126.019 17.085,129.467 20.533 C 131.410 22.477,133.000 24.471,133.000 24.966 C 133.000 25.461,133.851 26.135,134.892 26.466 C 135.933 26.796,137.024 27.985,137.318 29.107 C 137.611 30.230,138.785 31.393,139.926 31.691 C 141.067 31.989,142.000 32.856,142.000 33.617 C 142.000 34.692,144.004 35.000,151.000 35.000 C 156.040 35.000,160.000 34.581,160.000 34.047 C 160.000 33.522,162.025 31.097,164.500 28.657 C 166.975 26.217,169.000 23.911,169.000 23.533 C 169.000 23.155,170.315 21.531,171.923 19.923 C 174.881 16.965,177.000 16.165,177.000 18.007 C 177.000 18.560,180.150 22.189,184.000 26.069 C 187.850 29.950,191.000 33.547,191.000 34.063 C 191.000 34.578,195.050 35.000,200.000 35.000 C 207.145 35.000,209.000 34.705,209.000 33.567 C 209.000 32.779,209.900 31.849,211.000 31.500 C 212.100 31.151,213.000 30.480,213.000 30.008 C 213.000 28.744,224.671 17.000,225.926 17.000 C 226.517 17.000,227.000 17.453,227.000 18.006 C 227.000 18.559,229.025 21.008,231.500 23.448 C 233.975 25.888,236.000 28.344,236.000 28.907 C 236.000 29.469,236.900 30.411,238.000 31.000 C 239.100 31.589,240.000 32.730,240.000 33.535 C 240.000 34.719,241.824 35.000,249.500 35.000 C 255.203 35.000,259.000 34.598,259.000 33.994 C 259.000 33.441,261.025 30.992,263.500 28.552 C 265.975 26.112,268.000 23.820,268.000 23.459 C 268.000 22.502,274.053 17.000,275.106 17.000 C 275.598 17.000,276.000 17.364,276.000 17.810 C 276.000 18.255,279.150 21.878,283.000 25.860 C 286.850 29.842,290.000 33.527,290.000 34.050 C 290.000 34.580,293.982 35.000,299.000 35.000 C 306.145 35.000,308.000 34.705,308.000 33.567 C 308.000 32.779,308.900 31.849,310.000 31.500 C 311.100 31.151,312.000 30.528,312.000 30.117 C 312.000 29.705,314.708 26.531,318.018 23.063 L 324.036 16.758 327.518 20.450 C 329.433 22.481,331.000 24.530,331.000 25.004 C 331.000 25.478,331.900 26.151,333.000 26.500 C 334.100 26.849,335.000 27.789,335.000 28.589 C 335.000 29.389,336.125 30.555,337.500 31.182 C 338.875 31.808,340.000 32.924,340.000 33.661 C 340.000 34.675,342.064 35.000,348.500 35.000 C 355.070 35.000,357.000 34.686,357.000 33.617 C 357.000 32.856,357.933 31.989,359.074 31.691 C 360.215 31.393,361.382 30.257,361.667 29.167 C 361.952 28.077,363.077 26.952,364.167 26.667 C 365.257 26.382,366.389 25.230,366.682 24.107 C 366.976 22.985,368.044 21.803,369.057 21.482 C 370.069 21.161,371.176 20.021,371.516 18.949 C 372.445 16.023,373.525 16.509,378.738 22.198 C 381.357 25.057,384.737 28.613,386.250 30.099 C 387.762 31.586,389.000 33.297,389.000 33.901 C 389.000 34.566,391.170 35.000,394.500 35.000 L 400.000 35.000 400.000 27.513 L 400.000 20.026 391.000 11.000 C 386.050 6.036,382.000 1.530,382.000 0.987 C 382.000 0.411,378.255 0.000,373.000 0.000 C 366.951 0.000,364.000 0.372,364.000 1.135 C 364.000 1.760,362.988 3.285,361.750 4.524 C 360.512 5.763,357.250 9.297,354.500 12.378 C 351.750 15.458,349.210 17.983,348.856 17.989 C 347.751 18.008,342.411 12.590,341.720 10.750 C 341.359 9.788,340.404 9.000,339.599 9.000 C 338.794 9.000,337.849 8.100,337.500 6.999 C 337.150 5.898,335.995 4.533,334.932 3.964 C 333.870 3.395,333.000 2.270,333.000 1.465 C 333.000 0.287,331.237 0.000,324.000 0.000 C 318.982 0.000,315.000 0.420,315.000 0.950 C 315.000 1.473,311.850 5.158,308.000 9.140 C 304.150 13.122,301.000 16.745,301.000 17.190 C 301.000 19.149,298.528 17.612,293.456 12.500 C 290.455 9.475,288.000 6.540,288.000 5.978 C 288.000 5.417,286.875 4.445,285.500 3.818 C 284.125 3.192,283.000 2.076,283.000 1.339 C 283.000 0.319,280.854 0.000,274.000 0.000 C 265.667 0.000,265.000 0.148,265.000 2.000 C 265.000 3.100,264.341 4.000,263.535 4.000 C 262.730 4.000,261.616 4.849,261.060 5.888 C 259.820 8.205,250.609 18.000,249.669 18.000 C 249.295 18.000,246.629 15.440,243.745 12.312 C 240.860 9.183,237.488 5.644,236.250 4.447 C 235.012 3.250,234.000 1.760,234.000 1.135 C 234.000 0.372,231.049 0.000,225.000 0.000 C 219.711 0.000,216.000 0.409,216.000 0.993 C 216.000 1.539,212.405 5.614,208.012 10.049 L 200.024 18.112 194.686 12.732 C 191.751 9.772,189.059 6.597,188.706 5.675 C 188.352 4.754,187.374 4.000,186.531 4.000 C 185.667 4.000,185.000 3.129,185.000 2.000 C 185.000 0.140,184.333 0.000,175.500 0.000 C 166.667 0.000,166.000 0.140,166.000 2.000 C 166.000 3.129,165.333 4.000,164.469 4.000 C 163.626 4.000,162.637 4.782,162.271 5.737 C 161.525 7.680,151.250 18.000,150.061 18.000 C 149.642 18.000,148.219 16.551,146.900 14.780 C 145.580 13.009,142.363 9.426,139.750 6.819 C 137.137 4.212,135.000 1.611,135.000 1.039 C 135.000 0.397,131.559 0.000,126.000 0.000 C 121.017 0.000,117.000 0.422,117.000 0.945 C 117.000 1.465,113.410 5.612,109.023 10.161 L 101.046 18.433 93.023 10.147 C 88.610 5.590,85.000 1.442,85.000 0.931 C 85.000 0.419,81.175 0.000,76.500 0.000 C 70.064 0.000,68.000 0.325,68.000 1.339 C 68.000 2.076,66.875 3.192,65.500 3.818 C 64.125 4.445,63.000 5.417,63.000 5.978 C 63.000 7.007,52.540 18.000,51.562 18.000 C 51.272 18.000,48.665 15.446,45.768 12.324 C 42.871 9.203,39.487 5.663,38.250 4.460 C 37.013 3.256,36.000 1.760,36.000 1.135 C 36.000 0.372,33.049 0.000,27.000 0.000 C 21.125 0.000,18.000 0.382,18.000 1.099 " stroke="none" fill="#000000" fill-rule="evenodd"></path></g></svg>