<svg xmlns="http://www.w3.org/2000/svg" viewBox="0 0 496.559 496.559"><path d="M468.385 359.436c-5.19 5.19-13.652 5.174-18.811.017-17.39-17.398-48.076-17.446-65.511.016-5 4.996-13.733 4.996-18.762-.016-17.455-17.512-47.963-17.528-65.483 0-5.028 5.012-13.762 5.012-18.79 0l-.967-.935c-17.503-16.528-47.385-16.213-64.581.967-4.931 4.947-13.749 4.972-18.745-.024l-.95-.918c-17.374-16.424-47.64-16.045-64.581.926-4.931 4.948-13.745 4.964-18.741-.016-17.503-17.503-47.979-17.479-65.45-.024-5.238 5.206-13.701 5.165-18.843.008-6.443-6.43-16.904-6.445-23.352.017-6.428 6.445-6.428 16.898.017 23.337 18.054 18.019 47.417 18.027 65.499-.009 5.028-5.012 13.766-5.021 18.794.009 17.503 17.486 47.979 17.471 65.45 0 4.931-4.964 13.843-4.955 18.773-.025l.983.953c8.641 8.17 19.873 12.651 31.782 12.651 12.378 0 23.996-4.82 32.766-13.604 4.98-4.987 13.778-4.979 18.758-.008l.987.938c17.547 16.646 47.315 16.27 64.527-.904 5.06-5.045 13.766-5.045 18.794-.017 17.503 17.52 47.996 17.52 65.499-.017 4.964-4.963 13.762-5.004 18.79.041 18.05 18.027 47.434 17.986 65.482-.008 6.448-6.438 6.448-16.892.017-23.337-6.447-6.463-16.903-6.448-23.351-.018z"/></svg>