<svg width="400" height="35" xmlns="http://www.w3.org/2000/svg" display="block"><path d="M18 1.099c0 .605-2.25 3.303-5 5.995-2.75 2.693-5 5.348-5 5.901C8 13.548 7.314 14 6.475 14 5.637 14 4.523 15.125 4 16.5 3.477 17.875 2.363 19 1.525 19 .285 19 0 20.498 0 27v8h5.5c4.107 0 5.5-.363 5.5-1.433 0-.788.9-1.718 2-2.067 1.1-.349 2-1.04 2-1.535 0-.495 2.633-3.633 5.851-6.973l5.851-6.073 5.698 5.699c3.135 3.134 6.142 6.527 6.685 7.54.542 1.013 1.645 1.842 2.45 1.842.806 0 1.465.675 1.465 1.5 0 1.222 1.667 1.5 9 1.5 5.453 0 9-.402 9-1.02 0-.562 3.15-4.247 7-8.189 3.85-3.943 7-7.534 7-7.98 0-1.624 1.915-.743 4.923 2.266C81.615 21.769 83 23.421 83 23.748c0 .327 2.025 2.535 4.5 4.907 2.475 2.371 4.5 4.769 4.5 5.328 0 .614 3.567 1.017 9 1.017 5.021 0 9-.42 9-.951 0-.522 3.15-4.176 7-8.119 3.85-3.943 7-7.565 7-8.049 0-1.775 2.019-.796 5.467 2.652 1.943 1.944 3.533 3.938 3.533 4.433 0 .495.851 1.169 1.892 1.5 1.041.33 2.132 1.519 2.426 2.641.293 1.123 1.467 2.286 2.608 2.584 1.141.298 2.074 1.165 2.074 1.926 0 1.075 2.004 1.383 9 1.383 5.04 0 9-.419 9-.953 0-.525 2.025-2.95 4.5-5.39 2.475-2.44 4.5-4.746 4.5-5.124 0-.378 1.315-2.002 2.923-3.61 2.958-2.958 5.077-3.758 5.077-1.916 0 .553 3.15 4.182 7 8.062 3.85 3.881 7 7.478 7 7.994 0 .515 4.05.937 9 .937 7.145 0 9-.295 9-1.433 0-.788.9-1.718 2-2.067 1.1-.349 2-1.02 2-1.492C213 28.744 224.671 17 225.926 17c.591 0 1.074.453 1.074 1.006 0 .553 2.025 3.002 4.5 5.442 2.475 2.44 4.5 4.896 4.5 5.459 0 .562.9 1.504 2 2.093s2 1.73 2 2.535c0 1.184 1.824 1.465 9.5 1.465 5.703 0 9.5-.402 9.5-1.006 0-.553 2.025-3.002 4.5-5.442 2.475-2.44 4.5-4.732 4.5-5.093 0-.957 6.053-6.459 7.106-6.459.492 0 .894.364.894.81 0 .445 3.15 4.068 7 8.05 3.85 3.982 7 7.667 7 8.19 0 .53 3.982.95 9 .95 7.145 0 9-.295 9-1.433 0-.788.9-1.718 2-2.067 1.1-.349 2-.972 2-1.383 0-.412 2.708-3.586 6.018-7.054l6.018-6.305 3.482 3.692c1.915 2.031 3.482 4.08 3.482 4.554 0 .474.9 1.147 2 1.496s2 1.289 2 2.089 1.125 1.966 2.5 2.593c1.375.626 2.5 1.742 2.5 2.479 0 1.014 2.064 1.339 8.5 1.339 6.57 0 8.5-.314 8.5-1.383 0-.761.933-1.628 2.074-1.926 1.141-.298 2.308-1.434 2.593-2.524.285-1.09 1.41-2.215 2.5-2.5 1.09-.285 2.222-1.437 2.515-2.56.294-1.122 1.362-2.304 2.375-2.625 1.012-.321 2.119-1.461 2.459-2.533.929-2.926 2.009-2.44 7.222 3.249 2.619 2.859 5.999 6.415 7.512 7.901 1.512 1.487 2.75 3.198 2.75 3.802 0 .665 2.17 1.099 5.5 1.099h5.5V20.026L391 11c-4.95-4.964-9-9.47-9-10.013 0-.576-3.745-.987-9-.987-6.049 0-9 .372-9 1.135 0 .625-1.012 2.15-2.25 3.389-1.238 1.239-4.5 4.773-7.25 7.854-2.75 3.08-5.29 5.605-5.644 5.611-1.105.019-6.445-5.399-7.136-7.239-.361-.962-1.316-1.75-2.121-1.75-.805 0-1.75-.9-2.099-2.001-.35-1.101-1.505-2.466-2.568-3.035C333.87 3.395 333 2.27 333 1.465 333 .287 331.237 0 324 0c-5.018 0-9 .42-9 .95 0 .523-3.15 4.208-7 8.19-3.85 3.982-7 7.605-7 8.05 0 1.959-2.472.422-7.544-4.69C290.455 9.475 288 6.54 288 5.978c0-.561-1.125-1.533-2.5-2.16-1.375-.626-2.5-1.742-2.5-2.479C283 .319 280.854 0 274 0c-8.333 0-9 .148-9 2 0 1.1-.659 2-1.465 2-.805 0-1.919.849-2.475 1.888C259.82 8.205 250.609 18 249.669 18c-.374 0-3.04-2.56-5.924-5.688-2.885-3.129-6.257-6.668-7.495-7.865C235.012 3.25 234 1.76 234 1.135 234 .372 231.049 0 225 0c-5.289 0-9 .409-9 .993 0 .546-3.595 4.621-7.988 9.056l-7.988 8.063-5.338-5.38c-2.935-2.96-5.627-6.135-5.98-7.057-.354-.921-1.332-1.675-2.175-1.675-.864 0-1.531-.871-1.531-2 0-1.86-.667-2-9.5-2s-9.5.14-9.5 2c0 1.129-.667 2-1.531 2-.843 0-1.832.782-2.198 1.737C161.525 7.68 151.25 18 150.061 18c-.419 0-1.842-1.449-3.161-3.22-1.32-1.771-4.537-5.354-7.15-7.961-2.613-2.607-4.75-5.208-4.75-5.78C135 .397 131.559 0 126 0c-4.983 0-9 .422-9 .945 0 .52-3.59 4.667-7.977 9.216l-7.977 8.272-8.023-8.286C88.61 5.59 85 1.442 85 .931 85 .419 81.175 0 76.5 0 70.064 0 68 .325 68 1.339c0 .737-1.125 1.853-2.5 2.479-1.375.627-2.5 1.599-2.5 2.16C63 7.007 52.54 18 51.562 18c-.29 0-2.897-2.554-5.794-5.676-2.897-3.121-6.281-6.661-7.518-7.864C37.013 3.256 36 1.76 36 1.135 36 .372 33.049 0 27 0c-5.875 0-9 .382-9 1.099" fill-rule="evenodd"/></svg>