<svg xmlns="http://www.w3.org/2000/svg" width="45.795" height="45.795" viewBox="0 0 45.795 45.795"><path d="M43.564.076c-.9.03-22.171.841-31.812 10.482C.142 22.168 4.397 31.22 7.565 35.274L.611 42.229a2.089 2.089 0 0 0 2.954 2.953l6.944-6.945c2.807 2.238 6.027 3.41 9.424 3.41 5.107 0 10.257-2.558 15.303-7.604 9.643-9.644 10.453-30.91 10.485-31.812l.073-2.23-2.23.075zM32.283 31.09c-4.175 4.175-8.445 6.382-12.351 6.382-2.28 0-4.475-.759-6.445-2.212l4.922-4.922 8.384 2.019a2.087 2.087 0 0 0 2.517-1.541 2.087 2.087 0 0 0-1.542-2.52l-5.898-1.419 4.214-4.214 4.563 1.045a2.085 2.085 0 0 0 2.501-1.572 2.086 2.086 0 0 0-1.568-2.501l-2.01-.459 5.379-5.378a2.088 2.088 0 1 0-2.953-2.952l-5.403 5.404-.477-2.076a2.082 2.082 0 0 0-2.5-1.569 2.087 2.087 0 0 0-1.57 2.501l1.061 4.63-4.214 4.214-1.438-5.964a2.087 2.087 0 1 0-4.058.976l2.033 8.45-4.899 4.899c-3.974-5.367-2.518-12.108 4.171-18.798 6.767-6.766 21.086-8.626 26.688-9.105-.479 5.596-2.341 19.916-9.107 26.682z"/></svg>