<?xml version="1.0" encoding="iso-8859-1"?><!DOCTYPE svg PUBLIC "-//W3C//DTD SVG 1.1//EN" "http://www.w3.org/Graphics/SVG/1.1/DTD/svg11.dtd"><svg xmlns="http://www.w3.org/2000/svg" xmlns:xlink="http://www.w3.org/1999/xlink" display="none"><symbol viewBox="0 0 230 230" id="drop" xmlns="http://www.w3.org/2000/svg"><path d="M114.999 0S23.291 87.645 23.291 138.293c0 50.648 41.06 91.707 91.708 91.707 50.649 0 91.709-41.059 91.709-91.707C206.708 87.645 114.999 0 114.999 0zm25.817 190.834a55.289 55.289 0 0 1-30.746 9.283c-30.689 0-55.568-24.877-55.568-55.568a55.298 55.298 0 0 1 9.283-30.744 70.341 70.341 0 0 0-.377 7.295c0 38.723 31.391 70.113 70.111 70.113 2.464 0 4.898-.129 7.297-.379z"/></symbol><symbol viewBox="0 0 95.333 95.333" id="facebook-square-social-logo" xmlns="http://www.w3.org/2000/svg"><path d="M93.333 0H2a2 2 0 0 0-2 2v91.332a2 2 0 0 0 2 2h48.525V63.477H40.284a1.602 1.602 0 0 1-1.602-1.602V48.961c0-.885.717-1.603 1.602-1.603h10.242v-8.913c0-11.744 7.395-19.332 18.839-19.332l10.188.016c.883.001 1.6.718 1.6 1.602v11.991c0 .885-.717 1.602-1.602 1.602l-6.863.003c-4.729 0-5.595 1.844-5.595 5.475v7.556h11.979a1.602 1.602 0 0 1 1.602 1.603l-.004 12.915c0 .885-.717 1.603-1.602 1.603H67.092v31.854h26.24a2 2 0 0 0 2-2V2c.001-1.105-.894-2-1.999-2z"/></symbol><symbol viewBox="0 0 490.4 490.4" id="heart" xmlns="http://www.w3.org/2000/svg"><path d="M229 381.2c4.4 4.4 10.1 6.8 16.3 6.8 6.2 0 12-2.4 16.3-6.8l96.3-96.3c15.7-15.7 24.4-36.6 24.4-58.7 0-22.2-8.6-43.1-24.3-58.8-15.7-15.7-36.6-24.3-58.7-24.3-20 0-38.9 7-54 19.9-15.1-13-34.1-20-54.1-20-22.2 0-43 8.6-58.7 24.3s-24.3 36.6-24.3 58.8 8.7 43 24.4 58.7l96.4 96.4zm-79.3-196.7c11.1-11.1 25.7-17.1 41.4-17.1s30.4 6.1 41.5 17.2l4 4c4.8 4.8 12.5 4.8 17.3 0l3.9-3.9c11.1-11.1 25.8-17.2 41.5-17.2 15.6 0 30.3 6.1 41.4 17.2 11.1 11.1 17.2 25.8 17.1 41.4 0 15.7-6.1 30.4-17.2 41.5l-95.3 95.3-95.5-95.5c-11.1-11.1-17.2-25.8-17.2-41.4 0-15.7 6.1-30.4 17.1-41.5z"/><path d="M245.2 490.4c135.2 0 245.2-110 245.2-245.2S380.4 0 245.2 0 0 110 0 245.2s110 245.2 245.2 245.2zm0-465.9c121.7 0 220.7 99 220.7 220.7s-99 220.7-220.7 220.7-220.7-99-220.7-220.7 99-220.7 220.7-220.7z"/></symbol><symbol viewBox="0 0 45.795 45.795" id="leaf" xmlns="http://www.w3.org/2000/svg"><path d="M43.564.076c-.9.03-22.171.841-31.812 10.482C.142 22.168 4.397 31.22 7.565 35.274L.611 42.229a2.089 2.089 0 0 0 2.954 2.953l6.944-6.945c2.807 2.238 6.027 3.41 9.424 3.41 5.107 0 10.257-2.558 15.303-7.604 9.643-9.644 10.453-30.91 10.485-31.812l.073-2.23-2.23.075zM32.283 31.09c-4.175 4.175-8.445 6.382-12.351 6.382-2.28 0-4.475-.759-6.445-2.212l4.922-4.922 8.384 2.019a2.087 2.087 0 0 0 2.517-1.541 2.087 2.087 0 0 0-1.542-2.52l-5.898-1.419 4.214-4.214 4.563 1.045a2.085 2.085 0 0 0 2.501-1.572 2.086 2.086 0 0 0-1.568-2.501l-2.01-.459 5.379-5.378a2.088 2.088 0 1 0-2.953-2.952l-5.403 5.404-.477-2.076a2.082 2.082 0 0 0-2.5-1.569 2.087 2.087 0 0 0-1.57 2.501l1.061 4.63-4.214 4.214-1.438-5.964a2.087 2.087 0 1 0-4.058.976l2.033 8.45-4.899 4.899c-3.974-5.367-2.518-12.108 4.171-18.798 6.767-6.766 21.086-8.626 26.688-9.105-.479 5.596-2.341 19.916-9.107 26.682z"/></symbol><symbol viewBox="0 0 16 16" id="left-quote" xmlns="http://www.w3.org/2000/svg"><path fill="#444" d="M7 7v7H0V6.9c0-4.8 4.5-5.4 4.5-5.4l.6 1.4s-2 .3-2.4 1.9C2.3 6 3.1 7 3.1 7H7zM16 7v7H9V6.9c0-4.8 4.5-5.4 4.5-5.4l.6 1.4s-2 .3-2.4 1.9c-.4 1.2.4 2.2.4 2.2H16z"/></symbol><symbol viewBox="0 0 60 60" id="list" xmlns="http://www.w3.org/2000/svg"><path d="M38.914 0H6.5v60h47V14.586L38.914 0zm.586 3.414L50.086 14H39.5V3.414zM8.5 58V2h29v14h14v42h-43z"/><path d="M42.5 21h-16a1 1 0 1 0 0 2h16a1 1 0 1 0 0-2zM22.875 18.219l-4.301 3.441-1.367-1.367a.999.999 0 1 0-1.414 1.414l2 2a.998.998 0 0 0 1.331.074l5-4a1 1 0 0 0-1.249-1.562zM42.5 32h-16a1 1 0 1 0 0 2h16a1 1 0 1 0 0-2zM22.875 29.219l-4.301 3.441-1.367-1.367a.999.999 0 1 0-1.414 1.414l2 2a.998.998 0 0 0 1.331.074l5-4a1 1 0 0 0-1.249-1.562zM42.5 43h-16a1 1 0 1 0 0 2h16a1 1 0 1 0 0-2zM22.875 40.219l-4.301 3.441-1.367-1.367a.999.999 0 1 0-1.414 1.414l2 2a.998.998 0 0 0 1.331.074l5-4a1 1 0 0 0-1.249-1.562z"/></symbol><symbol viewBox="0 0 396.667 396.667" id="menu-options" xmlns="http://www.w3.org/2000/svg"><path d="M17 87.833h362.667c9.35 0 17-7.65 17-17s-7.65-17-17-17H17c-9.35 0-17 7.65-17 17s7.65 17 17 17zM17 215.333h362.667c9.35 0 17-7.65 17-17s-7.65-17-17-17H17c-9.35 0-17 7.65-17 17s7.65 17 17 17zM17 342.833h362.667c9.35 0 17-7.65 17-17s-7.65-17-17-17H17c-9.35 0-17 7.65-17 17s7.65 17 17 17z"/></symbol><symbol viewBox="0 0 296.999 296.999" id="open-book" xmlns="http://www.w3.org/2000/svg"><path d="M45.432 35.049h-.025a10.474 10.474 0 0 0-7.446 3.085 10.583 10.583 0 0 0-3.128 7.543v159.365c0 5.844 4.773 10.61 10.641 10.625 24.738.059 66.184 5.215 94.776 35.136V84.023c0-1.981-.506-3.842-1.461-5.382-23.467-37.792-68.563-43.534-93.357-43.592zM262.167 205.042V45.676c0-2.852-1.111-5.531-3.128-7.543a10.477 10.477 0 0 0-7.445-3.085h-.026c-24.793.059-69.889 5.801-93.357 43.593-.955 1.54-1.46 3.401-1.46 5.382v166.779c28.592-29.921 70.038-35.077 94.776-35.136 5.867-.015 10.64-4.781 10.64-10.624z"/><path d="M286.373 71.801h-7.706v133.241c0 14.921-12.157 27.088-27.101 27.125-20.983.05-55.581 4.153-80.084 27.344 42.378-10.376 87.052-3.631 112.512 2.171a10.606 10.606 0 0 0 9.011-2.054 10.567 10.567 0 0 0 3.994-8.301v-168.9c.001-5.859-4.767-10.626-10.626-10.626zM18.332 205.042V71.801h-7.706C4.768 71.801 0 76.568 0 82.427v168.897c0 3.25 1.456 6.276 3.994 8.301a10.598 10.598 0 0 0 9.011 2.054c25.46-5.803 70.135-12.547 112.511-2.171-24.502-23.19-59.1-27.292-80.083-27.342-14.943-.036-27.101-12.203-27.101-27.124z"/></symbol><symbol viewBox="0 0 316.824 316.824" id="social" xmlns="http://www.w3.org/2000/svg"><path d="M213.31 185.877l-.81-.366c-1.934-.88-3.882-1.71-5.868-2.487a125.643 125.643 0 0 0-6.594-2.423 178.185 178.185 0 0 0-5.328-1.645 135.39 135.39 0 0 0-8.329-2.134c-.964-.199-1.947-.392-2.924-.566l-.668-.129a109.613 109.613 0 0 0-5.064-.868l-.488-.077c-.019 0-.032-.013-.051-.013l-.488-.064a121.014 121.014 0 0 0-4.287-.578l-4.987-.411a134.792 134.792 0 0 0-18.509.051l-1.767.148-.823.064-2.063.186c-1.896.199-3.779.463-5.662.765l-.553.077a175 175 0 0 0-3.837.688c-1.407.251-2.796.527-4.184.829a132.512 132.512 0 0 0-7.937 2.044c-2.057.591-4.087 1.24-5.996 1.896l-1.324.476a138.074 138.074 0 0 0-11.967 4.884l-1.041.495-.019.026c-45.547 21.8-74.918 68.247-74.918 118.646 0 1.157.077 2.294.148 3.438l.341 7.995H289.5l.353-7.905c.077-1.17.148-2.333.148-3.528 0-51.203-30.084-98.061-76.691-119.514zM39.682 303.97c.553-45.251 27.308-86.762 68.086-105.882l1.311-.514.154-.148a117.957 117.957 0 0 1 9.833-3.965l1.06-.379c1.819-.63 3.631-1.208 5.514-1.742a115.288 115.288 0 0 1 7.134-1.844 152.38 152.38 0 0 1 3.76-.752c1.015-.186 2.024-.379 3.046-.54l.501-.09c1.838-.289 3.683-.553 5.521-.752l4.203-.366c5.501-.405 10.765-.463 17.14 0l4.087.341c1.009.116 2.018.251 3.246.424l1.472.212c1.536.225 3.072.488 4.614.778l.72.135c.868.161 1.729.328 2.545.501 2.532.553 5.019 1.208 7.487 1.922 1.632.476 3.252.964 4.833 1.491 2.005.668 3.985 1.395 5.945 2.172 1.883.739 3.74 1.53 5.578 2.372l.321.148c41.704 19.133 68.786 60.779 69.339 106.467H39.682v.011zm86.962-146.371c.964.405 1.96.758 2.956 1.112l2.089.758c.803.308 1.613.611 2.436.868 7.661 2.41 15.675 3.65 23.824 3.715l.649.013a81.59 81.59 0 0 0 8.284-.424c.925-.09 1.825-.238 2.731-.392l2.012-.302a54.927 54.927 0 0 0 3.445-.546c.81-.167 1.594-.379 2.378-.591l2.198-.559c1.086-.263 2.172-.527 3.246-.861a39.022 39.022 0 0 0 1.973-.701l1.767-.636c1.26-.437 2.532-.887 3.805-1.42.495-.212.977-.443 1.452-.675l.572-.283c1.742-.778 3.477-1.575 5.199-2.5l1.118-.668c1.928-1.093 3.85-2.224 5.797-3.554 1.009-.681 1.973-1.446 2.924-2.204l3.291-2.558c18.921-15.662 29.795-38.645 29.795-62.482l.039-.681c0-45.232-36.8-82.026-82.032-82.026-43.175 0-79.095 33.76-81.775 76.859l-.071 1.067c-.103 1.356-.186 2.712-.186 4.1-.013 33.038 19.647 62.698 50.084 75.571zm-37.083-78.78l.077-1.157c2.262-36.344 32.545-64.808 68.947-64.808 38.15 0 69.178 31.029 69.211 68.587l-.039.675c-.026 20.579-9.203 39.956-25.238 53.266l-3.053 2.327a34.942 34.942 0 0 1-2.224 1.697c-1.542 1.048-3.175 1.992-4.833 2.931l-.919.559c-1.388.746-2.847 1.407-4.364 2.082l-1.703.823c-.977.405-2.005.758-3.021 1.112l-2.121.765c-.411.154-.829.321-1.234.443-.79.244-1.6.431-2.404.63l-2.564.656c-.553.148-1.099.302-1.587.405-.855.167-1.729.283-2.596.405l-2.442.366c-.591.103-1.183.206-1.845.27-2.14.225-4.293.347-6.478.366l-.604-.006h-.013c-7.037-.006-13.946-1.054-20.553-3.123-.572-.18-1.131-.405-1.69-.617l-2.416-.88c-.752-.264-1.497-.521-2.217-.823A69.083 69.083 0 0 1 89.4 82.032c0-1.086.084-2.153.161-3.213z"/></symbol><symbol viewBox="0 0 49.94 49.94" id="star" xmlns="http://www.w3.org/2000/svg"><path d="M48.856 22.73a3.56 3.56 0 0 0 .906-3.671 3.56 3.56 0 0 0-2.892-2.438l-12.092-1.757a1.58 1.58 0 0 1-1.19-.865L28.182 3.043a3.56 3.56 0 0 0-3.212-1.996 3.56 3.56 0 0 0-3.211 1.996L16.352 14c-.23.467-.676.79-1.191.865L3.069 16.622A3.56 3.56 0 0 0 .177 19.06a3.56 3.56 0 0 0 .906 3.671l8.749 8.528c.373.364.544.888.456 1.4L8.224 44.701a3.506 3.506 0 0 0 .781 2.904c1.066 1.267 2.927 1.653 4.415.871l10.814-5.686a1.619 1.619 0 0 1 1.472 0l10.815 5.686a3.544 3.544 0 0 0 1.666.417c1.057 0 2.059-.47 2.748-1.288a3.505 3.505 0 0 0 .781-2.904l-2.065-12.042a1.582 1.582 0 0 1 .456-1.4l8.749-8.529z"/></symbol><symbol viewBox="0 0 52 52" id="success" xmlns="http://www.w3.org/2000/svg"><path d="M26 0C11.664 0 0 11.663 0 26s11.664 26 26 26 26-11.663 26-26S40.336 0 26 0zm0 50C12.767 50 2 39.233 2 26S12.767 2 26 2s24 10.767 24 24-10.767 24-24 24z"/><path d="M38.252 15.336l-15.369 17.29-9.259-7.407a1 1 0 0 0-1.249 1.562l10 8a.999.999 0 0 0 1.373-.117l16-18a1 1 0 1 0-1.496-1.328z"/></symbol><symbol viewBox="0 0 16 16" id="twitter-logo" xmlns="http://www.w3.org/2000/svg"><path d="M0 0v16h16V0H0zm12.8 5.6v.3c0 3.3-2.5 7-7 7-1.4 0-2.7-.4-3.8-1.1h.6c1.2 0 2.2-.4 3.1-1.1-1.1 0-2-.7-2.3-1.7h.5c.2 0 .4 0 .6-.1-1.1-.2-2-1.2-2-2.4.3.2.7.3 1.1.3-.7-.4-1.1-1.2-1.1-2 0-.5.1-.9.3-1.2C4 5.1 5.9 6 7.9 6.1c0-.2-.1-.4-.1-.6C7.8 4.1 8.9 3 10.3 3c.7 0 1.3.3 1.8.8.6-.1 1.1-.3 1.6-.6-.2.6-.6 1.1-1.1 1.4.5-.1 1-.2 1.4-.4-.3.6-.7 1-1.2 1.4z"/></symbol><symbol viewBox="0 0 455.731 455.731" id="vk" xmlns="http://www.w3.org/2000/svg"><path d="M0 0v455.731h455.731V0H0zm365.342 252.874c10.995 11.342 22.766 21.954 33.414 33.605 7.738 8.477 14.9 17.674 21.032 27.355 7.756 12.245 2.965 23.778-11.524 25.832-9.115 1.286-53.641.01-55.942 0-11.971-.054-22.464-4.207-30.914-12.336-9.398-9.052-17.939-18.979-26.963-28.423-2.719-2.847-5.621-5.575-8.75-7.957-7.382-5.63-14.627-4.38-18.076 4.289-2.947 7.446-5.493 27-5.612 28.669-.62 8.732-6.177 14.298-15.959 14.836-28.24 1.533-55.605-1.615-81.098-15.274-21.607-11.57-38.861-27.93-53.807-47.009-23.742-30.304-42.495-63.615-59.616-97.904-.875-1.753-18.216-38.653-18.682-40.396-1.549-5.836-.104-11.411 4.827-13.33 3.074-1.197 60.248-.004 61.199.047 9.123.493 15.345 4.342 19.187 13.812 10.922 26.972 24.764 52.402 42.995 75.231 2.418 3.039 5.466 5.739 8.677 7.938 4.69 3.221 9.115 2.089 11.022-3.276 2.017-5.63 3.868-17.04 3.978-22.952.301-15.448-.045-25.572-.875-41.001-.538-9.882-4.051-18.559-18.587-21.178-4.489-.812-4.906-4.507-2.022-8.193 6.004-7.674 14.368-8.897 23.438-9.381 14.7-.794 29.454-.146 44.172 0 5.995.055 12.026.538 17.93 1.825 7.701 1.679 11.825 7.081 13.094 14.599.657 3.878.995 7.865.903 11.789-.383 16.862-1.195 33.715-1.387 50.568-.082 6.615.401 13.395 1.816 19.837 1.98 8.979 8.093 11.232 14.344 4.745 7.938-8.24 14.937-17.51 21.506-26.926 11.935-17.127 20.849-35.923 28.523-55.303 3.969-10 7.008-12.172 17.765-12.199 20.22-.046 40.44-.064 60.66 0 3.586.018 7.336.356 10.721 1.432 5.493 1.752 7.674 6.232 6.387 11.917-3.002 13.322-10.201 24.645-17.911 35.531-12.373 17.464-25.339 34.509-38.003 51.772-1.615 2.199-3.038 4.544-4.362 6.926-4.735 8.557-4.407 13.356 2.5 20.483z"/></symbol><symbol display="block" viewBox="0 0 400 35" id="wave" xmlns="http://www.w3.org/2000/svg"><path d="M18 1.099c0 .605-2.25 3.303-5 5.995-2.75 2.693-5 5.348-5 5.901C8 13.548 7.314 14 6.475 14 5.637 14 4.523 15.125 4 16.5 3.477 17.875 2.363 19 1.525 19 .285 19 0 20.498 0 27v8h5.5c4.107 0 5.5-.363 5.5-1.433 0-.788.9-1.718 2-2.067 1.1-.349 2-1.04 2-1.535 0-.495 2.633-3.633 5.851-6.973l5.851-6.073 5.698 5.699c3.135 3.134 6.142 6.527 6.685 7.54.542 1.013 1.645 1.842 2.45 1.842.806 0 1.465.675 1.465 1.5 0 1.222 1.667 1.5 9 1.5 5.453 0 9-.402 9-1.02 0-.562 3.15-4.247 7-8.189 3.85-3.943 7-7.534 7-7.98 0-1.624 1.915-.743 4.923 2.266C81.615 21.769 83 23.421 83 23.748c0 .327 2.025 2.535 4.5 4.907 2.475 2.371 4.5 4.769 4.5 5.328 0 .614 3.567 1.017 9 1.017 5.021 0 9-.42 9-.951 0-.522 3.15-4.176 7-8.119 3.85-3.943 7-7.565 7-8.049 0-1.775 2.019-.796 5.467 2.652 1.943 1.944 3.533 3.938 3.533 4.433 0 .495.851 1.169 1.892 1.5 1.041.33 2.132 1.519 2.426 2.641.293 1.123 1.467 2.286 2.608 2.584 1.141.298 2.074 1.165 2.074 1.926 0 1.075 2.004 1.383 9 1.383 5.04 0 9-.419 9-.953 0-.525 2.025-2.95 4.5-5.39 2.475-2.44 4.5-4.746 4.5-5.124 0-.378 1.315-2.002 2.923-3.61 2.958-2.958 5.077-3.758 5.077-1.916 0 .553 3.15 4.182 7 8.062 3.85 3.881 7 7.478 7 7.994 0 .515 4.05.937 9 .937 7.145 0 9-.295 9-1.433 0-.788.9-1.718 2-2.067 1.1-.349 2-1.02 2-1.492C213 28.744 224.671 17 225.926 17c.591 0 1.074.453 1.074 1.006 0 .553 2.025 3.002 4.5 5.442 2.475 2.44 4.5 4.896 4.5 5.459 0 .562.9 1.504 2 2.093s2 1.73 2 2.535c0 1.184 1.824 1.465 9.5 1.465 5.703 0 9.5-.402 9.5-1.006 0-.553 2.025-3.002 4.5-5.442 2.475-2.44 4.5-4.732 4.5-5.093 0-.957 6.053-6.459 7.106-6.459.492 0 .894.364.894.81 0 .445 3.15 4.068 7 8.05 3.85 3.982 7 7.667 7 8.19 0 .53 3.982.95 9 .95 7.145 0 9-.295 9-1.433 0-.788.9-1.718 2-2.067 1.1-.349 2-.972 2-1.383 0-.412 2.708-3.586 6.018-7.054l6.018-6.305 3.482 3.692c1.915 2.031 3.482 4.08 3.482 4.554 0 .474.9 1.147 2 1.496s2 1.289 2 2.089 1.125 1.966 2.5 2.593c1.375.626 2.5 1.742 2.5 2.479 0 1.014 2.064 1.339 8.5 1.339 6.57 0 8.5-.314 8.5-1.383 0-.761.933-1.628 2.074-1.926 1.141-.298 2.308-1.434 2.593-2.524.285-1.09 1.41-2.215 2.5-2.5 1.09-.285 2.222-1.437 2.515-2.56.294-1.122 1.362-2.304 2.375-2.625 1.012-.321 2.119-1.461 2.459-2.533.929-2.926 2.009-2.44 7.222 3.249 2.619 2.859 5.999 6.415 7.512 7.901 1.512 1.487 2.75 3.198 2.75 3.802 0 .665 2.17 1.099 5.5 1.099h5.5V20.026L391 11c-4.95-4.964-9-9.47-9-10.013 0-.576-3.745-.987-9-.987-6.049 0-9 .372-9 1.135 0 .625-1.012 2.15-2.25 3.389-1.238 1.239-4.5 4.773-7.25 7.854-2.75 3.08-5.29 5.605-5.644 5.611-1.105.019-6.445-5.399-7.136-7.239-.361-.962-1.316-1.75-2.121-1.75-.805 0-1.75-.9-2.099-2.001-.35-1.101-1.505-2.466-2.568-3.035C333.87 3.395 333 2.27 333 1.465 333 .287 331.237 0 324 0c-5.018 0-9 .42-9 .95 0 .523-3.15 4.208-7 8.19-3.85 3.982-7 7.605-7 8.05 0 1.959-2.472.422-7.544-4.69C290.455 9.475 288 6.54 288 5.978c0-.561-1.125-1.533-2.5-2.16-1.375-.626-2.5-1.742-2.5-2.479C283 .319 280.854 0 274 0c-8.333 0-9 .148-9 2 0 1.1-.659 2-1.465 2-.805 0-1.919.849-2.475 1.888C259.82 8.205 250.609 18 249.669 18c-.374 0-3.04-2.56-5.924-5.688-2.885-3.129-6.257-6.668-7.495-7.865C235.012 3.25 234 1.76 234 1.135 234 .372 231.049 0 225 0c-5.289 0-9 .409-9 .993 0 .546-3.595 4.621-7.988 9.056l-7.988 8.063-5.338-5.38c-2.935-2.96-5.627-6.135-5.98-7.057-.354-.921-1.332-1.675-2.175-1.675-.864 0-1.531-.871-1.531-2 0-1.86-.667-2-9.5-2s-9.5.14-9.5 2c0 1.129-.667 2-1.531 2-.843 0-1.832.782-2.198 1.737C161.525 7.68 151.25 18 150.061 18c-.419 0-1.842-1.449-3.161-3.22-1.32-1.771-4.537-5.354-7.15-7.961-2.613-2.607-4.75-5.208-4.75-5.78C135 .397 131.559 0 126 0c-4.983 0-9 .422-9 .945 0 .52-3.59 4.667-7.977 9.216l-7.977 8.272-8.023-8.286C88.61 5.59 85 1.442 85 .931 85 .419 81.175 0 76.5 0 70.064 0 68 .325 68 1.339c0 .737-1.125 1.853-2.5 2.479-1.375.627-2.5 1.599-2.5 2.16C63 7.007 52.54 18 51.562 18c-.29 0-2.897-2.554-5.794-5.676-2.897-3.121-6.281-6.661-7.518-7.864C37.013 3.256 36 1.76 36 1.135 36 .372 33.049 0 27 0c-5.875 0-9 .382-9 1.099" fill-rule="evenodd"/></symbol></svg>