<svg xmlns="http://www.w3.org/2000/svg" viewBox="0 0 54 54"><path d="M46.534 54H7.466A7.466 7.466 0 0 1 0 46.534V7.466A7.466 7.466 0 0 1 7.466 0h39.067A7.467 7.467 0 0 1 54 7.466v39.067A7.467 7.467 0 0 1 46.534 54z" fill="#ec4848"/><path d="M37 16a1 1 0 1 0 0 2h6.586L29.119 32.467l1.414 1.414L45 19.414V26a1 1 0 1 0 2 0V16H37zM23.293 33.708L12.122 22.536l1.414-1.414 11.171 11.171zM0 27.586v2.828l7.879-7.879-1.414-1.414z" fill="#fff"/><path d="M27 31c-2.757 0-5 2.243-5 5s2.243 5 5 5 5-2.243 5-5-2.243-5-5-5zM10 14c-2.757 0-5 2.243-5 5s2.243 5 5 5 5-2.243 5-5-2.243-5-5-5z" fill="#fff"/></svg>