<svg xmlns="http://www.w3.org/2000/svg" viewBox="0 0 56 56"><path d="M35.586 41.586L31 46.172V28a2 2 0 0 0-4 0v18.172l-4.586-4.586a2 2 0 1 0-2.828 2.828l7.999 7.999c.093.094.196.177.307.251.047.032.099.053.148.081.065.036.127.075.196.103.065.027.133.042.2.062.058.017.113.04.173.051a1.998 1.998 0 0 0 .783-.001c.06-.012.115-.034.173-.051.067-.02.135-.035.2-.062.069-.028.131-.067.196-.103.05-.027.101-.049.148-.081.11-.074.213-.157.307-.251l7.999-7.999a2 2 0 1 0-2.829-2.827z"/><path d="M47.835 18.986c-.137-.019-2.457-.335-4.684.002a.999.999 0 0 1-1.139-.838 1 1 0 0 1 .838-1.139c1.531-.233 3.062-.196 4.083-.124C46.262 9.135 39.83 3 32.085 3 27.388 3 22.667 5.379 19.8 9.129A8.98 8.98 0 0 1 23 16a1 1 0 1 1-2 0 6.997 6.997 0 0 0-3.911-6.272c-.069-.034-.139-.069-.21-.101a6.812 6.812 0 0 0-.835-.321c-.035-.01-.071-.017-.106-.027a7.031 7.031 0 0 0-1.022-.213A7.142 7.142 0 0 0 14 9c-3.859 0-7 3.141-7 7 0 .082.006.163.012.244l.012.21-.009.16c-.007.13-.015.259-.015.386v.63l-.567.271C2.705 19.688 0 24 0 28.154 0 34.135 4.865 39 10.845 39H25V28a4 4 0 0 1 8 0v11h2.353c.059 0 .116-.005.174-.009l.198-.011.271.011c.057.004.114.009.173.009h9.803C51.501 39 56 34.501 56 28.972c0-4.811-3.51-9.1-8.165-9.986z"/></svg>